<svg width="800" height="800" viewBox="0 0 800 800" fill="none" xmlns="http://www.w3.org/2000/svg">
<path fill-rule="evenodd" clip-rule="evenodd" d="M425.33 515.091C508.352 502.628 572.011 431.001 572.011 344.505C572.011 249.233 494.778 172 399.505 172C304.233 172 227 249.233 227 344.505C227 429.561 288.556 500.238 369.549 514.419V736H425.33V515.091Z" fill="black"/>
<path fill-rule="evenodd" clip-rule="evenodd" d="M255 468.478C225.154 435.2 207 391.22 207 343C207 247.93 277.568 169.341 369.181 156.758C339.579 110.025 287.413 79 228 79C135.768 79 61 153.768 61 246C61 328.34 120.592 396.763 199 410.491V721H255V468.478Z" fill="black"/>
<path fill-rule="evenodd" clip-rule="evenodd" d="M545.181 468.478C575.027 435.2 593.181 391.22 593.181 343C593.181 247.93 522.613 169.341 431 156.758C460.602 110.025 512.768 79 572.181 79C664.413 79 739.181 153.768 739.181 246C739.181 328.34 679.589 396.763 601.181 410.491V721H545.181V468.478Z" fill="black"/>
</svg>
